<?xml version="1.0" encoding="UTF-8"?>
<svg width="467px" height="58px" viewBox="0 0 467 58" version="1.1" xmlns="http://www.w3.org/2000/svg" xmlns:xlink="http://www.w3.org/1999/xlink">
    <!-- Generator: Sketch 60.1 (88133) - https://sketch.com -->
    <title>BG</title>
    <desc>Created with Sketch.</desc>
    <g id="演示动画" stroke="none" stroke-width="1" fill="none" fill-rule="evenodd">
        <g id="基本信息-医院申报趋势" transform="translate(-40.000000, -109.000000)" stroke="#171D31">
            <g id="field/general/data-validation_field_general_data-validation-copy-2" transform="translate(40.000000, 100.000000)">
                <path d="M10.2555408,9.5 C7.07975665,9.5 5.72769499,9.76109515 4.32841662,10.5094374 C3.11184715,11.1600659 2.16006588,12.1118471 1.50943741,13.3284166 C0.761095152,14.727695 0.5,16.0797567 0.5,19.2555408 L0.5,56.7444592 C0.5,59.9202433 0.761095152,61.272305 1.50943741,62.6715834 C2.16006588,63.8881529 3.11184715,64.8399341 4.32841662,65.4905626 C5.72769499,66.2389048 7.07975665,66.5 10.2555408,66.5 L456.744459,66.5 C459.920243,66.5 461.272305,66.2389048 462.671583,65.4905626 C463.888153,64.8399341 464.839934,63.8881529 465.490563,62.6715834 C466.238905,61.272305 466.5,59.9202433 466.5,56.7444592 L466.5,19.2555408 C466.5,16.0797567 466.238905,14.727695 465.490563,13.3284166 C464.839934,12.1118471 463.888153,11.1600659 462.671583,10.5094374 C461.272305,9.76109515 459.920243,9.5 456.744459,9.5 L10.2555408,9.5 Z" id="BG"></path>
            </g>
        </g>
    </g>
</svg>